<mxfile host="app.diagrams.net" agent="Mozilla/5.0 (Windows NT 10.0; Win64; x64) AppleWebKit/537.36 (KHTML, like Gecko) Chrome/133.0.0.0 Safari/537.36" version="26.0.16">
  <diagram name="Pagina-1" id="ua4XcGBlDsil_uwZML-H">
    <mxGraphModel dx="1941" dy="497" grid="1" gridSize="10" guides="1" tooltips="1" connect="1" arrows="1" fold="1" page="1" pageScale="1" pageWidth="827" pageHeight="1169" math="0" shadow="0">
      <root>
        <mxCell id="0" />
        <mxCell id="1" parent="0" />
        <mxCell id="FRKwMsUwU2U-9wxBTWLh-1" value="&lt;b&gt;&lt;font style=&quot;font-size: 14px;&quot;&gt;Movimento&lt;/font&gt;&lt;/b&gt;&lt;div&gt;Tridimensionale: WASD&lt;/div&gt;" style="rounded=1;whiteSpace=wrap;html=1;" vertex="1" parent="1">
          <mxGeometry x="50" y="50" width="140" height="60" as="geometry" />
        </mxCell>
        <mxCell id="FRKwMsUwU2U-9wxBTWLh-3" value="&lt;font style=&quot;font-size: 14px;&quot;&gt;&lt;b&gt;Gestione Cassa&lt;/b&gt;&lt;/font&gt;&lt;div&gt;-Apri il menù ordini: Q&lt;/div&gt;&lt;div&gt;-Seleziona prodotti: LMB o numeri tastiera&lt;/div&gt;&lt;div&gt;-Conferma ordine: Invio&lt;/div&gt;&lt;div&gt;-Rimuovi prodotto: Backspace&lt;/div&gt;&lt;div&gt;-Pagamento in carta: F&lt;/div&gt;&lt;div&gt;-Pagamento in contanti: G&lt;/div&gt;&lt;div&gt;-Resto: R o LMB&lt;/div&gt;" style="rounded=1;whiteSpace=wrap;html=1;align=center;" vertex="1" parent="1">
          <mxGeometry x="230" width="260" height="140" as="geometry" />
        </mxCell>
        <mxCell id="FRKwMsUwU2U-9wxBTWLh-4" value="&lt;b&gt;&lt;font style=&quot;font-size: 14px;&quot;&gt;Preparazione Cibo&lt;/font&gt;&lt;/b&gt;&lt;div&gt;-Prendere un ingrediente: LMB&lt;/div&gt;&lt;div&gt;-Mettere un ingrediente: RMB&lt;/div&gt;&lt;div&gt;-Scartare ingrediente: C&lt;/div&gt;&lt;div&gt;-Cuocere carne: Spazio&lt;/div&gt;&lt;div&gt;-Girare carne: R&lt;/div&gt;&lt;div&gt;-Togliere carne: E&lt;/div&gt;&lt;div&gt;-Prendere patatite: E&lt;/div&gt;&lt;div&gt;-Versare bibita: V&lt;/div&gt;" style="rounded=1;whiteSpace=wrap;html=1;" vertex="1" parent="1">
          <mxGeometry x="560" y="70" width="240" height="150" as="geometry" />
        </mxCell>
        <mxCell id="FRKwMsUwU2U-9wxBTWLh-5" value="&lt;div&gt;&lt;b&gt;&lt;font style=&quot;font-size: 14px;&quot;&gt;Pulizia e Manutenzione&lt;/font&gt;&lt;/b&gt;&lt;/div&gt;&lt;div&gt;-Pulire piastra: T&lt;/div&gt;&lt;div&gt;-Svuotare i cestini: O&lt;/div&gt;&lt;div&gt;-Lavare superfici: L (Serve detergente)&lt;/div&gt;&lt;div&gt;-Ricaricare i dispenseri di bibite: B&lt;/div&gt;&lt;div&gt;-Rifornire ingredienti: I&lt;/div&gt;" style="rounded=1;whiteSpace=wrap;html=1;" vertex="1" parent="1">
          <mxGeometry x="-30" y="170" width="200" height="140" as="geometry" />
        </mxCell>
        <mxCell id="FRKwMsUwU2U-9wxBTWLh-6" value="&lt;font style=&quot;font-size: 14px;&quot;&gt;&lt;b&gt;Controllo Sicurezza Alimentare&lt;/b&gt;&lt;/font&gt;&lt;div&gt;-Controllare temp. Olio: T&lt;/div&gt;&lt;div&gt;-Cambiare Olio: Ctrl+T&lt;/div&gt;&lt;div&gt;-Verificare Scadenza Ingredienti: Tab&lt;/div&gt;&lt;div&gt;-Scartare ingrediente scaduto: Shift+S&lt;/div&gt;&lt;div&gt;-Chiamare il responsabile per il controllo: H&lt;/div&gt;" style="rounded=1;whiteSpace=wrap;html=1;" vertex="1" parent="1">
          <mxGeometry x="250" y="210" width="250" height="150" as="geometry" />
        </mxCell>
        <mxCell id="FRKwMsUwU2U-9wxBTWLh-7" value="&lt;font style=&quot;font-size: 14px;&quot;&gt;&lt;b&gt;Gestione Priorità Ordini&lt;/b&gt;&lt;/font&gt;&lt;div&gt;-Vedere lista ordini: M&lt;/div&gt;&lt;div&gt;-Evidenziare ordini urgenti: U&lt;/div&gt;" style="rounded=1;whiteSpace=wrap;html=1;" vertex="1" parent="1">
          <mxGeometry x="570" y="290" width="170" height="80" as="geometry" />
        </mxCell>
        <mxCell id="FRKwMsUwU2U-9wxBTWLh-8" value="&lt;font style=&quot;font-size: 14px;&quot;&gt;&lt;b&gt;Comandi generali&lt;/b&gt;&lt;/font&gt;&lt;div&gt;-Menù opzioni: Esc&lt;/div&gt;&lt;div&gt;-Pausa gioco: P&lt;/div&gt;&lt;div&gt;-Rivedere comandi: F1&lt;/div&gt;" style="rounded=1;whiteSpace=wrap;html=1;" vertex="1" parent="1">
          <mxGeometry y="390" width="210" height="80" as="geometry" />
        </mxCell>
      </root>
    </mxGraphModel>
  </diagram>
</mxfile>
